<?xml version="1.0" standalone="no"?>
<!DOCTYPE svg PUBLIC "-//W3C//DTD SVG 20010904//EN"
 "http://www.w3.org/TR/2001/REC-SVG-20010904/DTD/svg10.dtd">
<svg version="1.0" xmlns="http://www.w3.org/2000/svg"
 width="1097.000000pt" height="1097.000000pt" viewBox="0 0 1097.000000 1097.000000"
 preserveAspectRatio="xMidYMid meet">
<metadata>
Created by potrace 1.14, written by Peter Selinger 2001-2017
</metadata>
<g transform="translate(0.000000,1097.000000) scale(0.100000,-0.100000)"
fill="#000000" stroke="none">
<path d="M5366 9951 c-3 -5 -44 -8 -91 -8 -46 0 -88 -2 -91 -6 -3 -3 -17 -2
-30 3 -15 6 -24 6 -24 0 0 -5 -6 -7 -14 -4 -8 3 -17 0 -21 -6 -5 -8 -11 -8
-21 1 -11 9 -14 8 -14 -2 0 -12 -2 -12 -9 0 -5 8 -11 9 -15 3 -3 -6 -20 -9
-36 -7 -20 3 -28 0 -24 -6 4 -7 -1 -7 -15 0 -16 9 -21 9 -21 -1 0 -9 -3 -9
-10 2 -9 14 -15 7 -11 -14 1 -5 -5 -4 -13 4 -10 8 -21 9 -28 4 -7 -5 -28 -9
-45 -9 -18 0 -33 -2 -33 -6 0 -4 -9 -5 -21 -2 -12 4 -25 0 -30 -8 -7 -11 -9
-11 -9 -1 0 8 -5 10 -12 5 -7 -4 -24 -8 -38 -8 -14 0 -29 -3 -35 -6 -5 -3 -17
-5 -25 -4 -8 0 -18 -4 -22 -10 -5 -6 -11 -6 -19 2 -10 10 -15 9 -25 -5 -8 -10
-13 -12 -14 -4 0 6 -5 12 -11 12 -5 0 -8 -3 -6 -7 3 -5 -2 -15 -11 -23 -14
-13 -15 -13 -10 1 5 12 1 15 -18 11 -13 -2 -24 -8 -24 -13 0 -5 -12 -4 -26 1
-14 6 -23 6 -20 1 3 -5 -1 -12 -10 -15 -23 -9 -26 -8 -18 7 6 9 4 9 -7 1 -8
-6 -22 -10 -32 -9 -10 2 -14 -1 -10 -8 4 -7 0 -8 -11 -4 -11 5 -15 3 -10 -5 5
-7 2 -9 -9 -5 -9 3 -18 1 -21 -6 -3 -9 -5 -9 -5 0 -1 7 -8 10 -16 7 -8 -4 -13
-9 -11 -13 2 -3 -13 -6 -35 -5 -26 0 -36 -3 -30 -10 6 -8 -2 -11 -26 -12 -19
0 -39 -7 -44 -15 -6 -10 -9 -11 -9 -1 0 9 -7 8 -25 -4 -14 -9 -25 -13 -25 -9
0 4 -7 1 -17 -6 -9 -8 -24 -13 -35 -11 -10 2 -18 -3 -18 -10 0 -9 -3 -9 -10 2
-5 8 -10 10 -10 5 0 -6 -10 -12 -22 -12 -13 -1 -28 -9 -34 -18 -9 -12 -13 -13
-17 -3 -4 11 -6 11 -6 0 -1 -7 -5 -10 -11 -7 -5 3 -10 -2 -11 -12 0 -16 -1
-16 -9 2 -7 18 -9 18 -15 3 -4 -10 -13 -14 -22 -11 -11 4 -14 2 -9 -6 5 -8 0
-10 -19 -7 -21 4 -25 2 -21 -10 4 -12 1 -14 -14 -9 -11 4 -20 2 -20 -3 0 -8
-6 -10 -49 -14 -11 -1 -17 -6 -15 -10 3 -4 0 -8 -6 -8 -6 0 -8 -5 -4 -12 5 -9
2 -9 -9 1 -13 11 -17 11 -17 1 0 -8 -3 -10 -6 -7 -4 3 -16 0 -28 -8 -11 -8
-28 -15 -38 -15 -9 0 -22 -8 -27 -17 -7 -12 -11 -13 -11 -5 0 10 -4 9 -16 -2
-8 -9 -20 -14 -25 -11 -5 4 -9 1 -9 -5 0 -7 -7 -10 -15 -6 -8 3 -14 0 -12 -7
1 -7 -5 -12 -13 -12 -8 0 -21 -7 -28 -15 -8 -9 -11 -10 -7 -2 6 11 3 11 -14 0
-12 -7 -21 -16 -21 -19 0 -7 -40 -22 -52 -20 -5 1 -8 -4 -8 -11 0 -6 -3 -8 -7
-5 -3 4 -12 -1 -20 -11 -8 -9 -12 -12 -9 -6 3 6 -1 11 -9 11 -8 0 -12 -4 -9
-8 7 -12 -34 -31 -48 -23 -7 4 -8 3 -4 -4 4 -7 -3 -14 -19 -18 -14 -3 -25 -10
-25 -15 0 -5 -7 -9 -16 -9 -9 0 -12 -5 -8 -12 5 -8 2 -9 -9 -5 -10 3 -17 3
-17 -2 0 -4 -12 -13 -27 -20 -22 -10 -24 -14 -12 -22 7 -5 9 -9 3 -9 -5 0 -15
5 -22 12 -9 9 -12 9 -12 0 0 -7 -7 -12 -16 -12 -8 0 -13 -4 -10 -9 3 -5 -4
-11 -15 -14 -14 -4 -18 -10 -13 -19 5 -9 2 -8 -11 2 -11 9 -16 10 -11 3 7 -12
-5 -18 -27 -14 -5 1 -6 -2 -4 -6 6 -10 -19 -34 -27 -26 -3 4 -6 1 -6 -6 0 -7
-4 -9 -10 -6 -5 3 -10 1 -10 -5 0 -6 -5 -8 -12 -4 -7 5 -9 2 -6 -8 4 -8 0 -15
-8 -16 -8 -1 -21 -3 -29 -4 -8 -1 -12 -4 -10 -8 2 -4 -3 -16 -11 -26 -9 -10
-13 -13 -9 -6 10 19 -4 14 -33 -13 -61 -57 -65 -61 -57 -45 4 8 -3 3 -16 -11
-13 -14 -34 -31 -47 -38 -12 -7 -20 -17 -16 -23 4 -7 2 -8 -5 -4 -7 5 -24 -4
-42 -23 -16 -17 -29 -28 -29 -25 0 3 -11 -6 -24 -20 -13 -15 -26 -26 -30 -26
-4 0 -21 -16 -39 -35 -17 -19 -38 -35 -44 -35 -7 0 -13 -5 -13 -11 0 -12 -30
-44 -30 -32 0 4 -5 0 -11 -10 -6 -9 -14 -15 -20 -12 -5 3 -6 -1 -3 -9 3 -9 -2
-17 -15 -21 -11 -3 -23 -15 -26 -26 -4 -10 -10 -17 -14 -15 -4 3 -15 -4 -24
-15 -9 -10 -15 -19 -12 -19 3 0 -4 -9 -15 -20 -12 -12 -25 -18 -30 -15 -6 3
-7 -1 -4 -9 6 -15 -6 -21 -29 -17 -5 1 -5 -3 -2 -9 9 -14 -24 -52 -38 -43 -6
3 -7 1 -3 -5 4 -7 2 -12 -3 -12 -6 0 -10 -3 -8 -8 1 -4 -20 -28 -46 -55 -27
-26 -45 -47 -42 -47 4 0 -9 -15 -28 -32 -19 -19 -32 -39 -29 -48 3 -8 1 -12
-3 -8 -5 5 -19 -8 -32 -27 -13 -19 -28 -35 -34 -35 -6 0 -7 -4 -4 -10 3 -5 1
-10 -6 -10 -8 0 -7 -5 2 -17 10 -12 10 -15 1 -9 -7 4 -19 0 -28 -8 -8 -9 -12
-16 -7 -16 4 0 1 -6 -7 -13 -27 -22 -56 -61 -40 -53 9 4 8 2 -2 -7 -10 -8 -18
-19 -18 -25 0 -6 -6 -9 -14 -6 -11 4 -14 -1 -12 -20 2 -14 -2 -24 -8 -23 -6 1
-10 -4 -8 -12 2 -8 -3 -11 -12 -8 -10 4 -13 -1 -11 -18 1 -14 -1 -22 -5 -20
-4 3 -10 -5 -13 -16 -4 -16 -11 -20 -24 -15 -14 6 -15 4 -6 -5 9 -9 8 -15 -3
-26 -8 -8 -12 -19 -8 -24 3 -5 0 -8 -8 -7 -7 2 -13 -4 -13 -12 0 -8 -8 -23
-18 -32 -10 -9 -18 -19 -18 -22 3 -21 0 -26 -11 -20 -8 5 -9 2 -5 -9 3 -10 3
-17 -1 -17 -5 0 -14 -16 -22 -35 -7 -19 -17 -32 -22 -29 -5 3 -8 2 -7 -3 4
-25 -2 -43 -13 -37 -8 5 -9 2 -5 -9 3 -10 2 -17 -3 -17 -5 0 -12 -11 -16 -25
-4 -15 -11 -22 -18 -18 -6 3 -8 3 -4 -1 8 -10 -11 -66 -23 -66 -5 0 -9 -9 -9
-20 0 -11 -4 -20 -10 -20 -5 0 -9 -6 -7 -12 1 -7 -4 -12 -11 -10 -10 2 -10 -2
-2 -18 9 -16 8 -20 -5 -20 -9 0 -13 -5 -9 -11 3 -6 0 -15 -7 -20 -12 -8 -12
-11 1 -19 13 -8 12 -10 -2 -10 -10 0 -18 -7 -18 -15 0 -8 -4 -15 -10 -15 -5 0
-10 -5 -10 -11 0 -5 6 -7 13 -3 6 4 4 -2 -6 -13 -9 -11 -14 -23 -10 -26 3 -4
1 -7 -5 -7 -7 0 -12 -11 -12 -24 0 -14 -5 -28 -12 -32 -7 -5 -8 -3 -3 6 5 9 4
11 -4 6 -9 -6 -9 -11 0 -22 9 -11 9 -14 -1 -14 -7 0 -10 -8 -7 -20 3 -13 0
-20 -10 -20 -9 0 -13 -6 -9 -15 3 -8 2 -15 -2 -15 -4 0 -8 -10 -9 -22 -1 -11
-8 -25 -15 -29 -10 -7 -10 -9 2 -9 11 -1 10 -4 -4 -15 -11 -9 -14 -15 -7 -15
9 0 8 -5 -3 -16 -18 -17 -21 -28 -6 -19 5 3 3 -7 -5 -21 -8 -15 -12 -31 -9
-36 3 -4 0 -8 -6 -8 -7 0 -10 -7 -6 -15 3 -8 2 -15 -3 -15 -8 0 -10 -7 -15
-58 -1 -19 -7 -37 -13 -40 -5 -4 -9 -19 -9 -34 1 -14 -2 -24 -6 -22 -4 3 -8 2
-9 -3 -4 -46 -11 -79 -22 -92 -10 -12 -9 -13 3 -6 12 7 13 6 3 -7 -7 -8 -10
-18 -6 -21 3 -4 1 -7 -5 -7 -7 0 -12 -5 -12 -11 0 -5 6 -7 13 -3 9 5 9 4 0 -6
-6 -7 -9 -19 -6 -28 4 -9 2 -13 -4 -9 -6 4 -10 -1 -10 -11 0 -51 -3 -63 -16
-56 -7 5 -7 1 2 -10 10 -11 11 -20 4 -24 -5 -4 -9 -17 -8 -29 1 -13 -3 -23 -9
-23 -6 0 -4 -5 4 -10 12 -7 12 -10 1 -10 -7 0 -11 -6 -8 -12 2 -7 1 -22 -3
-33 -4 -11 -3 -26 4 -34 9 -12 8 -13 -3 -6 -11 6 -13 1 -9 -24 2 -17 0 -31 -5
-31 -5 0 -7 -9 -4 -20 3 -11 0 -20 -6 -20 -7 0 -5 -5 3 -10 13 -9 13 -10 0
-10 -12 0 -12 -2 -1 -9 9 -6 10 -11 2 -15 -6 -4 -11 -12 -11 -17 0 -6 6 -7 13
-3 9 6 9 4 1 -7 -6 -8 -10 -22 -9 -31 2 -10 -1 -18 -5 -18 -5 0 -5 -13 0 -29
6 -23 5 -29 -5 -25 -14 6 -15 -12 -2 -33 5 -8 3 -13 -5 -13 -10 0 -9 -3 1 -9
12 -8 12 -12 2 -24 -8 -10 -8 -17 -2 -21 14 -9 2 -37 -13 -29 -8 4 -8 2 1 -7
6 -7 9 -19 6 -28 -5 -11 -3 -13 8 -7 11 7 12 6 3 -6 -7 -8 -11 -25 -10 -39 1
-14 -2 -33 -7 -44 -6 -13 -6 -16 3 -11 14 9 10 -27 -5 -37 -6 -5 -4 -8 5 -8
13 0 13 -1 0 -10 -12 -8 -12 -10 -1 -10 11 0 11 -3 1 -16 -8 -8 -9 -14 -4 -13
23 4 26 -2 8 -16 -10 -8 -14 -15 -8 -15 7 0 10 -13 8 -31 -3 -22 0 -28 9 -23
9 6 9 5 0 -8 -7 -8 -10 -18 -6 -21 3 -4 0 -7 -8 -7 -10 -1 -9 -4 4 -11 14 -8
16 -14 6 -25 -9 -11 -9 -14 1 -14 10 0 10 -3 1 -14 -9 -11 -9 -16 0 -21 8 -6
7 -10 -2 -16 -8 -5 -9 -9 -4 -9 6 0 12 -30 13 -67 3 -89 4 -93 14 -93 4 0 8
-5 8 -11 0 -5 -5 -7 -11 -3 -8 5 -8 1 0 -14 14 -27 14 -35 -1 -26 -7 4 -4 -3
7 -15 16 -19 17 -24 5 -31 -13 -8 -13 -10 0 -10 12 0 13 -2 1 -9 -11 -7 -11
-9 0 -14 12 -5 12 -6 0 -6 -11 -1 -11 -4 -1 -16 7 -8 9 -15 5 -15 -4 0 -2 -7
5 -15 7 -8 9 -15 5 -15 -4 0 -2 -6 4 -14 9 -11 9 -16 0 -22 -8 -5 -9 -3 -4 6
6 9 4 11 -4 6 -9 -6 -9 -12 3 -25 9 -10 13 -21 10 -24 -4 -4 -1 -13 5 -21 9
-11 9 -16 0 -22 -9 -5 -7 -11 6 -21 12 -8 14 -13 5 -13 -10 0 -9 -5 4 -19 13
-14 14 -21 5 -27 -8 -5 -10 -3 -4 6 5 9 4 11 -4 6 -9 -6 -9 -11 -1 -21 7 -8 8
-20 4 -26 -4 -8 -3 -9 4 -5 10 6 18 -34 13 -66 0 -5 3 -8 9 -8 5 0 10 -13 10
-29 0 -17 5 -33 10 -36 8 -5 7 -12 -2 -23 -10 -12 -10 -14 0 -8 8 5 12 -2 12
-24 0 -17 4 -29 9 -26 4 3 8 -2 8 -12 0 -48 4 -63 14 -56 8 4 9 0 4 -15 -4
-12 -2 -21 4 -21 6 0 7 -7 4 -17 -5 -12 -3 -14 8 -8 12 7 12 6 1 -7 -10 -12
-9 -18 4 -28 8 -8 13 -22 11 -32 -3 -10 -1 -18 5 -18 6 0 8 -7 4 -15 -3 -8 -1
-15 5 -15 6 0 7 -5 4 -10 -3 -5 -2 -10 3 -10 5 0 9 -7 10 -15 1 -8 3 -22 4
-30 1 -8 6 -15 11 -15 5 0 7 -9 4 -20 -3 -11 -2 -20 1 -20 4 0 16 -12 26 -27
11 -14 14 -23 8 -19 -7 4 -12 3 -12 -3 0 -5 5 -13 10 -16 6 -3 10 -15 10 -26
0 -11 7 -27 16 -36 8 -9 13 -22 10 -30 -3 -7 1 -16 9 -19 8 -3 11 -12 8 -21
-5 -12 -3 -14 8 -8 12 8 12 6 0 -9 -12 -15 -12 -17 0 -14 8 2 13 -4 13 -14 -1
-10 2 -18 7 -18 5 0 9 -9 9 -21 0 -13 4 -18 12 -13 8 5 9 2 5 -9 -3 -10 -2
-17 3 -17 6 0 10 -3 9 -7 -2 -16 14 -53 23 -53 5 0 6 -5 3 -10 -3 -6 0 -13 9
-16 8 -3 12 -12 10 -19 -3 -7 0 -16 5 -20 6 -3 8 -11 5 -17 -5 -7 -2 -8 6 -3
10 6 12 4 7 -9 -4 -9 -3 -15 2 -12 5 3 15 -2 22 -11 10 -12 10 -14 1 -9 -6 4
-12 2 -12 -3 0 -6 5 -11 11 -11 5 0 7 -4 4 -10 -3 -5 -1 -10 5 -10 6 0 8 -4 5
-10 -3 -5 1 -10 10 -10 9 0 13 -5 10 -11 -4 -6 1 -17 11 -25 11 -9 12 -12 4
-8 -8 5 -1 -10 16 -31 17 -22 29 -46 27 -53 -3 -7 1 -11 9 -10 7 2 12 -3 10
-9 -1 -7 6 -13 15 -13 14 0 15 -2 4 -9 -11 -7 -10 -12 8 -27 11 -10 21 -27 21
-37 0 -10 4 -16 9 -13 12 8 23 -22 14 -37 -3 -7 -3 -9 2 -5 8 8 35 -15 35 -30
0 -5 10 -17 23 -26 12 -9 16 -14 10 -11 -7 3 -13 4 -13 1 0 -10 45 -51 53 -48
4 1 2 -8 -4 -20 -11 -20 -10 -22 3 -10 13 11 16 10 14 -5 0 -11 5 -17 16 -17
10 1 16 -2 13 -6 -8 -13 6 -40 18 -33 6 3 7 1 3 -5 -8 -13 29 -54 40 -44 4 4
4 2 0 -5 -3 -6 -2 -14 4 -18 6 -4 8 -11 5 -16 -3 -5 1 -6 10 -3 11 5 14 2 8
-12 -5 -14 -3 -16 11 -11 10 4 15 3 11 -3 -3 -6 -1 -10 4 -10 6 0 11 -5 11
-10 0 -6 9 -20 20 -32 11 -12 20 -28 20 -35 0 -8 3 -12 8 -10 4 2 17 -7 29
-20 12 -13 20 -23 17 -23 -3 0 1 -7 10 -15 8 -8 21 -15 28 -15 10 0 9 -3 -2
-10 -13 -8 -12 -10 3 -10 10 0 15 -4 12 -10 -3 -5 1 -10 10 -10 9 0 14 -3 12
-7 -6 -10 19 -34 27 -26 3 4 6 1 6 -6 0 -16 26 -42 34 -34 3 4 6 0 6 -8 0 -8
9 -20 20 -27 12 -7 18 -17 15 -22 -3 -6 3 -10 15 -10 12 0 19 -3 17 -8 -6 -9
39 -52 47 -45 3 4 6 0 6 -9 0 -8 12 -20 26 -26 14 -7 22 -17 19 -22 -6 -9 6
-13 21 -7 4 1 11 -9 15 -22 6 -15 14 -21 24 -17 8 3 14 2 12 -2 -3 -11 49 -62
63 -62 6 0 9 -4 6 -9 -4 -5 7 -15 24 -23 17 -7 33 -21 36 -31 3 -9 9 -15 13
-12 5 2 17 -7 27 -20 10 -14 24 -25 31 -25 7 0 17 -8 22 -18 6 -9 11 -13 11
-8 0 5 8 0 17 -10 10 -11 30 -25 45 -33 15 -8 25 -19 21 -24 -3 -6 -1 -7 5 -3
6 3 13 2 17 -4 4 -6 11 -7 17 -4 7 4 8 2 4 -4 -4 -7 -2 -12 4 -12 6 0 8 -5 4
-12 -4 -6 -3 -8 4 -4 6 3 13 2 17 -4 4 -6 10 -8 15 -5 5 3 12 -4 15 -16 6 -17
9 -19 16 -8 7 11 9 11 9 -3 0 -10 5 -15 13 -12 8 3 20 -2 27 -10 7 -9 16 -13
21 -10 5 3 6 -2 3 -11 -4 -9 -3 -15 2 -14 21 4 34 -2 34 -15 0 -8 7 -17 16
-20 10 -4 13 -2 8 7 -6 9 -5 9 8 0 8 -7 19 -9 23 -5 5 4 6 3 3 -3 -7 -14 25
-42 45 -39 10 1 15 -2 11 -7 -3 -5 2 -9 11 -9 10 0 13 -5 9 -12 -5 -8 -2 -8
10 1 15 12 17 12 14 0 -2 -9 4 -13 17 -11 11 2 17 1 13 -4 -9 -9 21 -33 43
-34 8 0 25 -9 37 -20 12 -11 28 -20 37 -20 8 0 15 -3 15 -7 0 -5 11 -13 25
-19 18 -9 25 -9 29 0 2 6 5 3 5 -7 1 -10 6 -15 11 -12 6 3 10 -2 10 -12 0 -15
2 -16 10 -3 7 11 10 11 10 2 0 -7 4 -11 9 -7 5 3 16 -2 25 -10 8 -8 19 -14 25
-13 5 2 17 -6 26 -17 9 -11 14 -14 10 -7 -9 17 3 15 22 -4 9 -8 22 -13 29 -10
8 3 14 1 14 -4 0 -6 7 -10 15 -10 18 0 57 -20 67 -35 4 -5 8 -6 8 -1 0 4 12 1
26 -9 18 -11 24 -13 19 -4 -5 8 1 6 12 -4 11 -9 23 -14 26 -10 4 3 7 1 7 -6 0
-7 5 -9 10 -6 6 3 10 2 10 -3 0 -6 9 -8 20 -5 11 3 20 0 20 -6 0 -6 9 -11 20
-11 11 0 20 -4 20 -8 0 -4 12 -9 27 -10 15 -1 30 -8 35 -15 6 -9 8 -8 8 3 0
11 2 12 8 2 5 -7 19 -14 32 -17 12 -2 32 -12 43 -22 11 -10 17 -12 13 -5 -4 6
-3 12 3 12 5 0 12 -6 14 -12 4 -9 6 -8 6 2 1 12 3 12 9 2 5 -7 19 -15 32 -17
13 -2 28 -9 33 -14 5 -5 16 -7 23 -4 8 3 14 -1 14 -8 0 -11 3 -11 10 1 6 10
10 11 10 3 0 -7 9 -13 20 -13 11 0 36 -7 56 -15 24 -10 33 -11 28 -2 -4 7 1 4
12 -5 14 -13 23 -14 38 -6 12 7 17 7 12 0 -9 -15 19 -22 34 -9 10 9 11 9 6 0
-4 -7 11 -13 46 -18 29 -4 59 -12 66 -17 8 -7 12 -6 12 3 0 9 3 10 8 4 7 -10
39 -18 80 -19 12 0 22 -4 22 -8 0 -4 5 -8 11 -8 5 0 7 6 3 13 -6 9 -4 9 7 0 7
-7 26 -13 41 -13 15 0 28 -5 28 -10 0 -7 6 -7 18 -1 12 6 23 5 36 -5 13 -9 24
-10 37 -3 12 6 19 6 19 0 0 -5 14 -8 30 -6 17 2 30 1 30 -4 0 -9 31 -8 47 2 6
4 13 2 15 -3 4 -14 87 -19 92 -5 2 5 5 2 5 -8 1 -15 5 -16 21 -7 17 9 20 8 20
-7 0 -14 2 -15 9 -4 5 7 14 10 20 7 6 -4 11 -1 11 6 1 8 5 7 14 -5 8 -10 17
-14 20 -9 3 6 16 8 28 4 14 -3 19 -1 14 6 -5 8 -2 10 8 6 9 -3 13 -11 9 -17
-4 -6 -1 -7 6 -2 19 11 121 11 121 0 0 -5 4 -5 8 2 5 8 13 9 22 3 8 -5 21 -5
32 1 13 7 18 6 18 -3 0 -10 2 -10 8 -1 4 7 13 9 21 4 7 -5 28 -5 46 -1 21 5
38 3 44 -3 8 -8 11 -8 11 0 0 13 52 12 62 -2 4 -5 8 -1 8 10 0 11 4 16 8 10
11 -16 46 -19 36 -3 -5 9 -2 8 11 -2 14 -12 19 -12 23 -2 3 10 7 10 18 1 11
-9 14 -8 14 2 0 11 2 11 10 -1 8 -12 10 -12 10 -1 0 8 2 12 6 9 3 -3 20 -2 39
2 21 5 38 3 46 -4 9 -8 10 -8 4 3 -6 10 -4 13 7 8 9 -3 21 0 27 6 8 8 11 8 11
-2 0 -9 4 -10 13 -5 6 5 24 9 40 8 15 0 27 3 27 8 0 5 9 4 20 -2 13 -7 20 -7
20 -1 0 6 7 8 15 5 8 -4 23 0 32 7 14 12 15 12 9 1 -7 -12 -4 -12 14 -2 12 6
28 9 36 6 8 -3 14 -1 14 4 0 5 7 7 15 4 8 -4 21 -2 28 3 6 5 28 8 47 8 19 0
40 7 47 15 8 9 12 10 13 3 0 -6 8 -10 18 -8 9 2 21 4 25 4 5 1 6 5 3 10 -3 4
8 7 24 5 16 -2 32 1 36 7 4 8 9 7 15 -2 6 -10 9 -11 9 -1 0 6 12 12 28 12 21
0 24 2 12 10 -8 5 -10 10 -5 10 6 0 16 -5 23 -12 8 -8 12 -8 12 -1 0 5 10 10
23 10 40 1 48 3 42 12 -3 6 3 8 15 6 11 -2 22 0 25 5 3 5 13 6 22 3 11 -5 14
-3 8 6 -6 10 -3 11 14 2 17 -10 22 -9 27 4 3 8 10 15 16 15 5 0 6 -6 2 -13 -6
-9 -5 -9 8 0 8 7 19 9 23 5 5 -4 5 -1 1 6 -5 8 0 12 16 12 13 0 30 6 37 12 11
11 12 10 6 -2 -8 -13 -7 -13 8 -1 9 7 17 10 17 5 0 -5 4 -4 8 3 4 6 20 14 36
17 16 3 34 10 40 16 5 5 20 10 32 10 13 0 26 5 29 10 4 6 11 7 17 4 6 -4 17 1
25 11 7 11 13 13 13 7 0 -9 7 -8 23 3 13 8 27 12 30 8 4 -3 7 -1 7 5 0 6 14
13 30 17 17 4 30 10 30 14 0 5 11 7 25 6 14 -2 23 1 19 6 -3 5 2 9 10 9 9 0
16 4 16 8 0 5 7 9 15 10 8 1 22 3 30 4 8 1 15 5 15 10 0 5 5 6 10 3 6 -3 10
-1 10 4 0 6 3 11 8 10 19 -3 51 14 45 25 -4 6 0 5 9 -2 14 -11 17 -10 23 9 6
17 9 19 16 8 5 -8 9 -9 9 -3 0 10 39 27 48 21 2 -1 8 6 13 15 6 10 16 18 24
18 20 0 86 38 102 59 12 14 12 14 7 -4 -6 -18 -5 -18 15 2 20 21 34 27 54 24
5 -1 6 3 2 9 -3 5 1 10 9 10 9 0 16 5 16 11 0 5 5 7 10 4 6 -3 10 -1 10 4 0 6
9 11 21 11 13 0 18 4 13 12 -5 8 -2 9 10 5 13 -5 19 -1 23 14 4 16 8 17 14 7
7 -10 9 -10 9 0 0 6 6 12 14 12 7 0 25 11 39 24 14 13 28 21 31 18 3 -3 6 1 6
8 0 7 3 11 6 7 3 -3 17 6 30 20 13 14 24 20 24 14 0 -7 5 -9 10 -6 6 4 8 11 5
16 -6 8 8 13 28 10 4 0 7 6 7 14 0 8 7 15 15 15 8 0 23 10 35 22 11 12 20 18
20 14 0 -4 11 4 23 18 13 14 27 23 30 19 4 -3 7 -1 7 6 0 7 4 10 9 6 5 -3 13
4 16 16 6 17 9 19 16 8 7 -11 9 -10 9 4 0 10 5 15 10 12 6 -3 10 2 10 11 0 10
3 15 6 11 3 -3 17 4 30 16 35 33 48 43 72 56 13 7 19 17 16 23 -5 7 0 9 14 6
15 -4 19 -2 15 8 -3 9 1 14 12 14 9 0 14 4 11 8 -2 4 9 17 25 27 16 11 29 23
29 28 0 4 7 7 15 7 8 0 15 7 15 15 0 8 10 20 22 26 13 7 30 22 39 33 38 48 80
86 89 81 6 -4 7 1 3 11 -4 12 -3 15 5 10 7 -4 12 -1 12 8 0 9 13 25 30 37 16
12 26 27 23 32 -4 6 -1 7 6 3 8 -5 14 0 18 13 3 11 8 19 12 17 6 -3 39 28 44
42 1 4 8 6 14 6 7 -1 10 2 7 7 -3 5 9 23 25 40 17 17 28 35 25 41 -4 6 -2 8 4
4 13 -8 44 33 35 47 -3 6 -2 7 4 4 6 -4 21 6 34 21 18 20 19 23 4 12 -18 -14
-19 -13 -8 1 7 9 9 20 5 24 -4 5 -1 5 6 1 14 -8 59 31 54 47 -1 5 8 17 20 28
13 11 16 18 8 14 -8 -4 -4 3 10 14 14 11 21 21 17 21 -4 0 4 11 18 24 15 14
24 30 20 35 -3 6 1 11 10 11 9 0 14 4 10 9 -3 6 3 14 12 20 10 6 14 11 8 11
-5 0 -3 5 5 10 8 5 15 15 15 22 1 7 7 12 15 10 11 -3 11 0 -1 14 -9 12 -9 15
-1 10 7 -4 12 -2 12 4 0 6 5 8 10 5 9 -5 15 24 11 48 -1 5 3 6 8 3 5 -3 16 10
25 29 9 19 21 35 27 35 6 0 7 5 4 10 -3 6 -1 10 5 10 7 0 10 7 6 15 -3 8 -1
15 4 15 6 0 10 7 10 15 0 8 5 15 11 15 6 0 9 7 6 15 -4 8 -1 17 5 21 7 5 8 2
3 -6 -5 -9 -4 -11 3 -6 7 4 12 16 12 27 0 13 4 18 13 13 6 -4 9 -4 5 0 -4 5 3
24 14 44 33 57 58 110 58 122 0 5 5 10 11 10 6 0 9 9 6 20 -3 11 0 18 7 17 6
-1 10 6 10 15 -1 10 2 18 8 18 5 0 6 5 3 10 -3 6 1 13 10 16 12 5 13 9 4 21
-10 11 -9 13 2 11 8 -2 13 3 11 10 -1 6 2 12 8 12 5 0 7 7 4 15 -4 8 -1 15 5
15 6 0 10 3 9 8 -3 13 13 52 22 52 5 0 7 9 5 20 -2 11 0 20 6 20 5 0 9 12 9
26 0 14 4 23 10 19 6 -4 10 5 10 19 0 14 6 26 13 26 8 0 7 4 -3 10 -13 8 -13
10 1 10 11 0 15 8 14 25 -2 14 1 25 6 25 6 0 8 4 5 9 -4 5 -1 11 5 13 7 2 14
17 16 33 7 51 9 59 21 88 7 16 10 32 7 37 -3 5 -1 10 5 12 11 3 22 38 24 76 0
12 5 22 9 22 5 0 5 5 2 10 -3 6 -2 10 4 10 5 0 8 9 6 20 -2 11 0 20 4 20 4 0
7 13 6 30 -1 17 2 27 8 23 6 -4 8 6 4 26 -4 18 -3 30 2 27 5 -3 11 1 14 8 3 8
1 16 -4 18 -6 2 -7 11 -4 21 4 9 11 14 16 11 5 -3 6 2 3 11 -4 8 0 23 7 32 8
9 9 14 3 10 -8 -4 -11 2 -10 17 1 19 4 22 14 14 10 -9 11 -6 3 16 -8 19 -7 26
1 26 6 0 8 3 5 7 -4 3 -1 13 6 21 10 13 9 14 -3 7 -13 -8 -13 -7 -1 8 11 14
11 17 0 17 -9 0 -10 3 -4 8 11 8 14 20 18 66 2 17 7 37 11 45 7 10 5 12 -3 6
-10 -6 -11 -3 -3 11 5 11 10 35 10 54 1 19 4 46 7 60 16 67 16 72 3 64 -10 -5
-10 -4 -1 6 6 7 9 19 6 28 -5 11 -2 13 6 7 10 -6 11 -3 2 14 -8 14 -8 21 -1
21 8 0 8 6 0 20 -6 11 -7 20 -3 20 5 0 8 12 7 28 -1 15 4 33 10 41 8 11 8 13
-1 7 -16 -9 -13 35 2 46 6 5 6 8 -2 8 -12 0 -12 17 0 37 4 6 3 15 -3 18 -8 5
-7 12 2 23 10 13 10 14 0 8 -9 -6 -11 -1 -8 18 3 14 8 31 12 37 4 7 3 9 -3 6
-5 -4 -10 6 -10 23 0 16 5 27 10 23 5 -3 4 4 -2 14 -5 11 -9 37 -7 57 2 20 -1
39 -6 42 -6 4 -5 10 3 15 11 7 11 11 2 17 -8 5 -9 13 -3 22 5 8 5 21 1 29 -4
9 -7 35 -6 59 0 23 -2 42 -5 42 -3 0 -6 8 -6 18 -3 64 -9 108 -19 114 -6 5 -5
8 3 8 7 0 10 5 6 12 -4 6 -9 33 -10 61 -2 27 -8 55 -13 61 -7 9 -7 16 1 24 7
7 8 12 2 12 -6 0 -11 7 -11 15 0 8 4 15 9 15 5 0 3 7 -6 15 -8 9 -13 22 -10
30 4 8 2 15 -3 15 -5 0 -8 12 -7 28 0 16 -5 30 -15 34 -13 6 -13 7 3 7 15 1
16 4 6 16 -6 8 -9 18 -6 24 3 5 0 12 -6 14 -9 4 -9 6 1 6 11 1 10 5 -5 17 -10
8 -12 12 -4 8 13 -7 13 -6 1 9 -8 10 -11 20 -8 24 4 3 2 12 -4 19 -6 8 -8 21
-5 30 4 12 2 15 -9 10 -13 -4 -14 -2 -5 14 8 15 8 20 -2 20 -10 0 -10 2 1 9 9
6 10 10 2 12 -6 2 -12 18 -14 36 -1 17 -5 29 -9 26 -5 -2 -9 8 -10 24 -2 47
-3 51 -12 60 -5 5 -6 2 -1 -7 5 -8 4 -12 0 -7 -5 4 -10 15 -11 25 -5 35 -14
64 -23 76 -7 9 -7 16 1 24 9 9 8 12 -4 12 -11 0 -16 7 -13 20 2 11 0 20 -6 20
-5 0 -9 9 -9 21 0 13 -4 18 -12 13 -10 -6 -10 -4 0 8 10 13 10 17 -3 22 -9 3
-13 11 -10 16 4 6 1 17 -5 25 -6 8 -9 18 -6 23 3 6 -1 15 -10 22 -12 11 -12
15 -2 21 10 7 8 9 -5 9 -14 0 -17 5 -12 21 5 13 3 19 -3 15 -9 -5 -28 39 -24
57 1 4 -3 7 -9 7 -5 0 -7 5 -4 10 3 6 1 10 -5 10 -6 0 -9 4 -6 9 3 5 -1 14 -9
21 -8 7 -15 23 -15 36 0 13 -5 24 -11 24 -6 0 -9 7 -5 15 3 9 0 15 -10 15 -8
0 -13 4 -9 9 3 5 -2 17 -11 25 -8 9 -10 16 -4 16 7 0 6 5 -2 14 -7 8 -17 11
-23 8 -5 -3 -3 3 5 13 9 11 10 16 3 11 -8 -4 -13 -2 -13 7 0 8 -10 27 -22 43
-13 16 -16 25 -8 20 8 -4 6 0 -4 8 -11 9 -17 16 -13 16 4 0 -2 10 -13 22 -11
12 -18 28 -16 34 3 7 -2 15 -10 18 -8 3 -14 13 -14 21 0 9 -4 13 -10 10 -6 -3
-7 1 -4 9 4 9 0 18 -9 22 -9 3 -14 11 -11 19 3 7 -2 15 -11 19 -11 4 -15 12
-11 23 4 10 4 14 0 10 -10 -9 -37 30 -29 43 6 9 -7 14 -27 11 -4 0 -5 6 -2 14
4 8 1 15 -6 15 -6 0 -8 5 -5 10 3 6 1 10 -5 10 -6 0 -8 5 -5 10 3 6 -1 10 -11
10 -11 0 -15 6 -11 20 3 10 2 19 -2 18 -19 -2 -31 3 -26 11 3 5 -1 16 -9 24
-8 8 -12 17 -9 21 4 3 1 6 -5 6 -7 0 -12 7 -12 16 0 8 -4 13 -9 10 -4 -3 -13
6 -19 19 -7 14 -16 25 -22 25 -6 0 -9 4 -5 9 3 5 1 12 -5 16 -6 4 -7 12 -3 18
4 7 -2 5 -12 -3 -10 -8 -16 -10 -12 -3 4 6 0 19 -9 27 -8 9 -12 16 -9 16 4 0
-6 12 -22 28 -16 15 -32 35 -36 45 -3 9 -14 17 -24 17 -14 0 -15 2 -4 9 11 7
9 10 -8 16 -11 3 -21 13 -21 21 0 8 -4 14 -10 14 -5 0 -10 7 -10 15 0 16 -34
38 -43 28 -4 -3 -5 4 -2 16 3 19 -5 26 -27 22 -5 0 -8 5 -8 13 0 7 -18 28 -39
47 -22 18 -42 42 -45 52 -2 11 -9 16 -15 12 -10 -6 -16 8 -12 28 1 5 -3 6 -7
3 -5 -3 -18 5 -28 19 -10 13 -21 22 -26 19 -4 -3 -8 2 -8 11 0 9 -4 13 -10 10
-5 -3 -10 1 -10 9 0 9 -7 16 -16 16 -8 0 -13 4 -10 9 3 5 -3 11 -14 14 -11 3
-20 13 -20 22 0 9 -4 13 -10 10 -5 -3 -10 -1 -10 6 0 7 -3 10 -6 6 -8 -7 -34
17 -34 32 0 6 -3 10 -7 10 -5 -1 -15 -1 -23 0 -13 1 -13 2 0 12 12 9 11 10 -7
6 -14 -3 -20 -1 -17 8 5 11 -35 45 -53 46 -5 0 -13 10 -20 22 -6 12 -15 21
-20 21 -13 -2 -53 32 -53 46 0 6 -4 8 -10 5 -5 -3 -10 -1 -10 5 0 7 -7 10 -14
7 -9 -4 -17 2 -21 13 -3 10 -15 22 -26 25 -10 4 -19 10 -19 15 0 5 -9 12 -20
15 -12 4 -17 11 -13 18 4 8 1 7 -9 -1 -14 -11 -17 -10 -23 7 -3 12 -13 21 -21
21 -9 0 -12 5 -8 12 4 7 3 8 -5 4 -7 -5 -21 2 -34 16 -13 14 -28 23 -35 20 -7
-2 -12 5 -13 15 0 11 -3 13 -6 5 -3 -9 -10 -7 -24 9 -10 12 -19 26 -19 30 0 5
-6 6 -14 3 -7 -3 -20 2 -29 10 -9 9 -20 16 -26 16 -6 0 -11 6 -11 13 0 9 -3 8
-9 -2 -7 -11 -10 -9 -16 8 -3 12 -11 19 -16 16 -5 -4 -9 -1 -9 5 0 6 -4 8 -10
5 -5 -3 -10 -1 -10 5 0 6 -4 8 -10 5 -5 -3 -10 -2 -10 4 0 9 -25 21 -43 21
-13 0 -35 25 -29 34 3 5 0 6 -6 3 -14 -10 -43 3 -36 15 4 6 -2 6 -14 -1 -16
-9 -19 -7 -18 7 0 9 -5 16 -13 14 -7 -1 -20 5 -27 15 -13 17 -14 17 -8 -2 4
-14 0 -12 -13 7 -14 20 -22 25 -30 17 -8 -8 -13 -5 -18 11 -6 18 -9 20 -16 9
-6 -10 -9 -11 -9 -1 0 6 -9 12 -20 12 -11 0 -20 5 -20 11 0 5 -4 7 -10 4 -5
-3 -10 1 -10 11 0 13 -3 14 -14 5 -11 -10 -17 -8 -25 6 -6 10 -11 15 -11 10 0
-4 -14 0 -30 8 -17 9 -36 13 -43 8 -9 -5 -9 -3 0 8 11 13 9 15 -10 14 -12 -1
-30 7 -39 18 -10 11 -18 15 -18 8 0 -7 -10 -5 -27 6 -16 11 -24 13 -19 5 7
-11 4 -11 -12 -1 -12 7 -18 17 -15 23 3 5 1 6 -6 2 -6 -4 -19 -2 -28 6 -14 11
-16 11 -9 -2 6 -11 4 -11 -6 1 -7 9 -21 15 -30 13 -10 -1 -18 2 -18 7 0 6 -4
7 -10 4 -5 -3 -10 -2 -10 3 0 5 -11 8 -24 7 -18 -2 -23 1 -19 11 4 10 0 12
-11 8 -9 -3 -23 0 -32 7 -13 10 -17 10 -25 -2 -7 -12 -9 -11 -9 3 0 11 -7 15
-25 14 -13 -2 -33 5 -44 15 -13 12 -22 15 -26 8 -5 -7 -11 -7 -19 0 -7 6 -16
8 -19 4 -4 -3 -9 2 -13 11 -5 12 -10 14 -19 6 -10 -8 -15 -8 -21 1 -5 8 -3 9
6 4 8 -5 11 -4 7 2 -4 6 -20 9 -37 8 -16 -1 -30 1 -30 6 0 5 -13 9 -28 9 -15
0 -34 6 -41 13 -11 10 -12 9 -6 -3 6 -11 3 -10 -12 3 -23 20 -38 23 -27 5 6
-10 5 -10 -8 -1 -8 7 -18 10 -21 6 -4 -3 -7 0 -7 7 0 11 -3 11 -12 2 -9 -9
-15 -7 -25 6 -9 10 -12 11 -7 2 7 -12 5 -13 -8 -3 -8 7 -18 10 -22 6 -4 -4
-11 -1 -16 7 -9 13 -10 13 -10 0 0 -11 -2 -12 -8 -2 -5 7 -25 13 -45 14 -20 1
-37 4 -37 8 0 3 -17 6 -37 5 -21 0 -43 3 -49 8 -7 4 -24 6 -38 3 -15 -3 -24
-1 -21 5 4 5 -11 9 -34 9 -22 0 -42 4 -45 8 -2 4 -17 7 -33 6 -15 -1 -34 4
-42 10 -12 9 -13 8 -6 -3 6 -10 4 -13 -6 -9 -52 22 -52 22 -44 7 7 -11 6 -12
-6 -3 -8 5 -25 10 -39 9 -14 0 -28 4 -32 10 -5 7 -8 6 -8 -1 0 -9 -31 -11 -50
-4 -3 1 -9 2 -14 1 -5 -1 -16 1 -25 4 -24 10 -231 11 -231 2 0 -5 -7 -1 -16 7
-17 18 -28 21 -19 6 7 -12 -23 -9 -44 4 -10 6 -12 5 -7 -2 4 -7 3 -12 -3 -12
-5 0 -12 6 -14 13 -4 10 -6 10 -6 0 -1 -7 -8 -13 -17 -13 -8 0 -12 5 -9 10 3
6 4 10 1 10 -3 0 -7 -4 -10 -9z"/>
</g>
</svg>
