<?xml version="1.0" standalone="no"?>
<svg xmlns:xlink="http://www.w3.org/1999/xlink" id="wave" style="transform:rotate(0deg); transition: 0.3s" viewBox="0 0 1440 320" version="1.1" xmlns="http://www.w3.org/2000/svg"><defs><linearGradient id="sw-gradient-0" x1="0" x2="0" y1="1" y2="0"><stop stop-color="rgba(4.072, 0, 86.888, 1)" offset="0%"/><stop stop-color="rgba(11, 206.227, 255, 1)" offset="100%"/></linearGradient></defs><path style="transform:translate(0, 0px); opacity:1" fill="url(#sw-gradient-0)" d="M0,0L60,32C120,64,240,128,360,149.3C480,171,600,149,720,128C840,107,960,85,1080,80C1200,75,1320,85,1440,122.7C1560,160,1680,224,1800,234.7C1920,245,2040,203,2160,202.7C2280,203,2400,245,2520,229.3C2640,213,2760,139,2880,128C3000,117,3120,171,3240,181.3C3360,192,3480,160,3600,122.7C3720,85,3840,43,3960,64C4080,85,4200,171,4320,186.7C4440,203,4560,149,4680,133.3C4800,117,4920,139,5040,144C5160,149,5280,139,5400,154.7C5520,171,5640,213,5760,202.7C5880,192,6000,128,6120,128C6240,128,6360,192,6480,192C6600,192,6720,128,6840,133.3C6960,139,7080,213,7200,234.7C7320,256,7440,224,7560,218.7C7680,213,7800,235,7920,240C8040,245,8160,235,8280,202.7C8400,171,8520,117,8580,90.7L8640,64L8640,320L8580,320C8520,320,8400,320,8280,320C8160,320,8040,320,7920,320C7800,320,7680,320,7560,320C7440,320,7320,320,7200,320C7080,320,6960,320,6840,320C6720,320,6600,320,6480,320C6360,320,6240,320,6120,320C6000,320,5880,320,5760,320C5640,320,5520,320,5400,320C5280,320,5160,320,5040,320C4920,320,4800,320,4680,320C4560,320,4440,320,4320,320C4200,320,4080,320,3960,320C3840,320,3720,320,3600,320C3480,320,3360,320,3240,320C3120,320,3000,320,2880,320C2760,320,2640,320,2520,320C2400,320,2280,320,2160,320C2040,320,1920,320,1800,320C1680,320,1560,320,1440,320C1320,320,1200,320,1080,320C960,320,840,320,720,320C600,320,480,320,360,320C240,320,120,320,60,320L0,320Z"/></svg>