<?xml version="1.0" standalone="no"?>
<svg xmlns:xlink="http://www.w3.org/1999/xlink" id="wave" style="transform:rotate(180deg); transition: 0.3s" viewBox="0 0 1440 410" version="1.1" xmlns="http://www.w3.org/2000/svg"><defs><linearGradient id="sw-gradient-0" x1="0" x2="0" y1="1" y2="0"><stop stop-color="rgba(255, 255, 255, 1)" offset="0%"/><stop stop-color="rgba(255, 255, 255, 1)" offset="100%"/></linearGradient></defs><path style="transform:translate(0, 0px); opacity:1" fill="url(#sw-gradient-0)" d="M0,369L48,369C96,369,192,369,288,328C384,287,480,205,576,205C672,205,768,287,864,287C960,287,1056,205,1152,205C1248,205,1344,287,1440,287C1536,287,1632,205,1728,150.3C1824,96,1920,68,2016,47.8C2112,27,2208,14,2304,27.3C2400,41,2496,82,2592,123C2688,164,2784,205,2880,246C2976,287,3072,328,3168,334.8C3264,342,3360,314,3456,287C3552,260,3648,232,3744,239.2C3840,246,3936,287,4032,293.8C4128,301,4224,273,4320,259.7C4416,246,4512,246,4608,232.3C4704,219,4800,191,4896,191.3C4992,191,5088,219,5184,218.7C5280,219,5376,191,5472,157.2C5568,123,5664,82,5760,95.7C5856,109,5952,178,6048,232.3C6144,287,6240,328,6336,348.5C6432,369,6528,369,6624,334.8C6720,301,6816,232,6864,198.2L6912,164L6912,410L6864,410C6816,410,6720,410,6624,410C6528,410,6432,410,6336,410C6240,410,6144,410,6048,410C5952,410,5856,410,5760,410C5664,410,5568,410,5472,410C5376,410,5280,410,5184,410C5088,410,4992,410,4896,410C4800,410,4704,410,4608,410C4512,410,4416,410,4320,410C4224,410,4128,410,4032,410C3936,410,3840,410,3744,410C3648,410,3552,410,3456,410C3360,410,3264,410,3168,410C3072,410,2976,410,2880,410C2784,410,2688,410,2592,410C2496,410,2400,410,2304,410C2208,410,2112,410,2016,410C1920,410,1824,410,1728,410C1632,410,1536,410,1440,410C1344,410,1248,410,1152,410C1056,410,960,410,864,410C768,410,672,410,576,410C480,410,384,410,288,410C192,410,96,410,48,410L0,410Z"/></svg>